<svg xmlns="http://www.w3.org/2000/svg" xmlns:xlink="http://www.w3.org/1999/xlink" viewBox="0 0 826.82 671.66"><defs><style>.cls-1{fill:none;}.cls-2{clip-path:url(#clip-path);}.cls-3{opacity:0.4;}.cls-4{clip-path:url(#clip-path-4);}.cls-5{fill:#837db6;}.cls-6{fill:#f26862;}.cls-7{fill:#fff;}</style><clipPath id="clip-path" transform="translate(-86.59 -164.17)"><rect class="cls-1" width="1000" height="1000"/></clipPath><clipPath id="clip-path-4" transform="translate(-86.59 -164.17)"><rect class="cls-1" x="86.59" y="164.17" width="826.82" height="671.66"/></clipPath></defs><title>Asset 36</title><g id="Layer_2" data-name="Layer 2"><g id="Layer_1-2" data-name="Layer 1"><g class="cls-2"><g class="cls-2"><g class="cls-2"><g class="cls-3"><g class="cls-4"><path class="cls-5" d="M312.47,215.35a7.39,7.39,0,0,0-1.3,1.12c-3.19,4-4.72,3.88-6.7-.86-2.82-6.78-4.54-13.74-1.72-21,2.08-5.39,4.74-7.17,10.24-5.61s9.52-.38,13.15-4.31c5-5.41,10.07-10.68,12-18.21.28-1.11,2.86-2.32,4.35-2.29,2.74.06,5.45,1,8.18,1.59,5.81,1.19,5.79,1.18,5.38,7.25a35.33,35.33,0,0,0-.2,6.41c.33,2.81,2.28,3.83,5,3.13A8.28,8.28,0,0,0,364.2,181a14.56,14.56,0,0,1,11.38-4.18c1.47.11,3.13-1.36,4.58-2.3s2.48-2,4.44-3.61c.25,2.73.5,4.55.58,6.38.4,9.2,9.47,19.46,18.65,20.83,2.62.39,4.08,1.28,4.38,4.17.42,4.17,3.22,7,6.25,9.64,4.45,3.87,8.66,7.8,8,14.63-.27,2.8,2.15,3.21,4.31,2.71a25.87,25.87,0,0,0,4.52-1.94c4.27-1.9,9.5.74,10,5.41.38,3.83,1.68,6.71,5,8.82,1.16.73,2.45,2.35,2.46,3.57,0,3.55,2.21,5.66,4,8.28,1.6,2.35,2.29,5.42,2.9,8.28.35,1.66-.32,3.51-.4,5.29-.32,7.6.74,9.17,7.81,11.75.59.22,1.35.3,1.74.71,7.09,7.63,16.86,7.13,26,8.51a4.93,4.93,0,0,1,4.48,3.9c1.28,4.13,3.72,5.3,7.8,3.89a9.64,9.64,0,0,0,2.72-1.31c3.53-2.7,7.2-2.49,10.59-.11,9.52,6.66,19.56,4.64,29.59,1.94,5.18-1.4,6.08-4,3.75-8.83-2.63-5.47-2.4-6.63,2.82-9.74,2.43-1.45,2.58-3.48,2.56-5.84,0-4.92,1-5.69,5.56-4.5s4.87.62,6.08-3.83a134.53,134.53,0,0,1,5.31-15,7.27,7.27,0,0,1,5.95-4.62c4.11-.68,8.1-2,12.18-2.93a18.44,18.44,0,0,0,11.6-7.8,14.16,14.16,0,0,1,8-5.07c8.32-1.73,12.17-7.07,13.87-14.73.72-3.21,1.16-6.53,2.32-9.58,1.1-2.89,2.36-6.31,4.64-8.06,6.49-5,9.62-12,13-18.92.64-1.34,1.35-2.64,2.11-4.11,6.2,4.29,12.36,7.72,15.82,14.74,2.35,4.79,6.58,8.63,9.77,13a11.51,11.51,0,0,1,2.17,5.18c.52,4.9,3.33,8.22,6.43,11.72s5.27,7.63,7.94,11.44c1.79,2.55,3.64,5.07,5.62,7.47,1.36,1.64,3.31,2.85,4.45,4.61,2.79,4.34,5.36,8.57,9.88,11.67,2.4,1.65,3.17,5.6,4.85,8.4,2.06,3.43,3.83,7.23,6.58,10,5.1,5.15,7.53,10.48,7.43,18.13-.08,7.05-.37,14.92,5.23,21.06C732.93,311.44,733,314,733,316c-.09,5.65,2,10.24,5.54,14.55,5.38,6.54,10.44,13.35,15.65,20,.78,1,1.68,1.89,2.51,2.85,2.21,2.53,4.75,4.85,6.54,7.66,1.89,3,4.12,4.65,7.65,4.69,6.92.08,11.15,4.47,14.36,9.8.88,1.47.18,4.08-.24,6.07-.24,1.14-1.39,2.08-2.12,3.12-3.83,5.39-3.66,7.59.6,12.8s9.23,9,16.57,9.51c3,.21,5.82,3.09,8.71,4.77,1,.61,2,1.6,3.11,1.83,4.07.84,8.21,1.38,12.3,2.14,4.86.91,9.63.89,14.11-1.42,5.48-2.82,11-4.21,17.14-2.06,1.78.62,4,.09,5.78.09,1.74,2.79,3.33,5.64,5.21,8.29a10.54,10.54,0,0,0,8.55,4.76,32.38,32.38,0,0,1,11.46,3.12c1.83.87,3.32,3.51,3.93,5.64a11.82,11.82,0,0,0,6.39,7.55c8.1,4.26,12.28,11.07,12.59,20.15.17,4.87.27,9.6,3.8,13.57.61.68,0,2.46-.09,3.74-1.2-.33-2.89-.27-3.52-1.06a32.2,32.2,0,0,1-4.37-7.06c-3.68-8.48-10.63-11.63-19.22-12.55a24.22,24.22,0,0,1-7.53-1.93c-2.74-1.29-5-.85-7.6.23-2.27.94-4.81,1.2-7.21,1.82-1.66.43-3.56.59-4.89,1.54-2.7,1.92-5.16,1.76-7.73,0-1.15-.77-2.2-1.72-3.36-2.49-6-3.94-9.93-3.7-14.56,1.25-.88.94-1,2.77-1.13,4.21-.53,5.63-3.27,8.47-8.76,9.17a12.78,12.78,0,0,0-3.7,1.51c-.56.27-1,.9-1.52,1.11-7.12,2.68-14.17,5.59-21.42,7.89-8.47,2.69-15.9,12.72-15.31,21.59.17,2.67-.27,4.4-3.32,5.44-2.38.81-4.37,2.93-6.34,4.68a2.6,2.6,0,0,0,0,2.46,78.39,78.39,0,0,0,6.37,8.92c2.26,2.6,2.73,5.24-.26,7-6.09,3.52-6.65,8.21-4.47,14.21a6.83,6.83,0,0,1-1.65,7.72,3.89,3.89,0,0,0-.33,3.47c1.07,2.48,1.28,4.83-.73,6.67-3.11,2.84-2.58,5.76-.76,8.87.64,1.09,1.45,2.08,2.15,3.14,3.09,4.68,2.27,5.68-2.15,8.8-6.33,4.48-11.5,10.21-12.27,18.6a16.31,16.31,0,0,1-.72,3.68,56.66,56.66,0,0,1-3.14,8.39c-3.31,6.3-.67,10.5,4.35,14.18,4.2,3.07,8.31,6.26,12.38,9.49,2.51,2,3.3,4.23,1.18,7.23-.83,1.17-.72,3.07-.82,4.65a39,39,0,0,0,.35,4.78l-4.13-3.66,4,10-1.23.91a70.21,70.21,0,0,1-6.32-5c-2.8-2.79-5.43-6.51-9.85-5-4.69,1.63-6.46,6.22-6.57,10.74-.17,6.69.67,13.4.77,20.1,0,2.68-.14,5.67-1.27,8-2.84,5.86-4.52,11.86-3.94,18.34.33,3.75-1.79,6.31-4.33,8a80.64,80.64,0,0,1-12.8,6.34c-2.61,1.08-4.6-.38-5-3.09s-1.25-6.16,2.76-6.76c5.81-.85,8.68-4.83,11.11-9.38,2.18-4.07.46-6.68-4.15-6.68a41.39,41.39,0,0,1-4.17-.1c-5.12-.54-5.92-1.91-4.58-6.92a6.82,6.82,0,0,0-.18-4c-1.34-3.49-5.12-5.05-10.32-4.56-3.75.36-5,2.71-6.12,6.13a43,43,0,0,0-2,13.29c0,3.35.06,6.4,2.16,9.39.9,1.27.51,3.87,0,5.66-1.87,6.51-4.19,12.89-6,19.4-1.21,4.28-3.65,6.66-8,7.5-5.23,1-5.56,1.27-4.72,6.56.5,3.11,1.5,6.63,3.5,8.9a12.48,12.48,0,0,1,2.94,11.94,13.49,13.49,0,0,0,1.68,10.88,12.44,12.44,0,0,1,1.48,6.18c.16,10,.07,20,.11,29.94,0,1.76.23,3.52.38,5.85-2.67,0-5.39.17-8.09,0-5.48-.44-9.83,1.5-13.54,5.5-3.94,4.23-9.15,5-14.62,4.62-4.3-.28-5.49-4.11-7.55-6.83-3.64-4.83-7.13-9.78-10.57-14.76-1.72-2.48-3.14-5.17-4.83-7.68-.55-.81-1.47-1.82-2.31-1.91-3.35-.34-4.08-2.42-4.15-5.26-.16-6.5-3.4-8.36-9.37-5.42-.91.44-1.77,1-2.71,1.37-4.33,1.82-7,1.22-9.35-2.79a11,11,0,0,0-6.84-5.52c-3.14-.85-3.56-3.1-2.83-6,1.66-6.59.81-8.84-5.14-12.09-5.77-3.16-11.88-5.69-17.59-8.94-6-3.41-10.81-8-12.16-15.25-.92-4.93.23-6.81,5.15-7.93,2.59-.6,4.33-1.4,3.52-4.49-.52-2,.26-3.08,2.36-3.4,7.49-1.13,15-2,22.42-3.67A27.94,27.94,0,0,0,609,720c4-3.26,3.87-8,1-12.36a11.84,11.84,0,0,1-2.25-5.45,6.87,6.87,0,0,0-5.11-6.77c-5.48-1.84-10-4.59-12.6-10.11-.76-1.59-3.3-2.25-4.74-3.62s-3.23-2.92-3.52-4.62c-1-5.87-.34-11.64,3.23-16.74,3-4.27,7.45-5.55,12.26-5.76a14.73,14.73,0,0,0,11.27-5.23c1.66-1.89,5.07-2.24,8.14-3.47a11.43,11.43,0,0,0-5.16-9.4c-12-7.95-19.8-19.86-29.17-30.28q-9-10-18.33-19.85c-3.63-3.86-6.23-3.94-9.52,0a9.37,9.37,0,0,1-8.66,3.56c-1.64-.15-3.3-.11-4.94-.31-4.85-.58-8.49,1-10.38,5.71-1.77,4.46-5.37,7-9.58,8.66A82.84,82.84,0,0,0,493.62,622a8,8,0,0,1-4.49,2.12c-10.67,1-19.24,5.67-24.91,14.74-5.55,8.86-13.85,13.47-23.29,16.64-12.2,4.11-18.71,13.06-21.64,25.12a14,14,0,0,1-.24,1.49c-.88,2.45-12.93,8.1-15.4,7.25-9.5-3.29-13.07-2-18.31,6.36a5.06,5.06,0,0,1-1.16,1.49c-4.54,3.14-7.91,6.79-7.94,12.9,0,1.24-2.66,3.18-4.36,3.57-6.58,1.5-10.45,5.22-12.6,11.66-2.06,6.17-8.7,12.66-14.22,15.2-3.51-7.33-7.43-14.06-5.43-23.2,1.33-6.05-.19-12.83-1.12-19.18-.26-1.78-2.81-3.37-4.55-4.76-3.61-2.89-7.43-5.7-7.4-10.86,0-1.95.92-5.29,2-5.54,2.58-.62,5.54.08,8.29.53a19.6,19.6,0,0,1,4.41,1.68,2.82,2.82,0,0,1,1.45,1c1.7,3.6,3.36,2.06,5.5.3s4.84-3.15,8.06-5.18c.32-2-2.16-3.27-4-4.83s-4-2.41-5.45-4.09c-2-2.33-4.16-4.93-5-7.78a10.83,10.83,0,0,0-6.56-7.72c-3-1.29-6.06-2.6-9-4-5.21-2.54-6.62-8-3.2-12.27.47-.58,1.27-1.56,1.64-1.44,5,1.54,8-3.81,12.89-3.32,5.28.54,6.65-2.09,4.34-6.85-1.06-2.18-.23-3.44,1.75-4.12,3.11-1.07,4.63-3.17,4-6.38s-3.11-4.46-6.12-4.66c-4.3-.29-8.61-.59-12.91-.62-2.64,0-4.47-.74-6-3.08-3.3-5-6.68-5.79-12-3.14-1.47.73-2.86,1.62-4.29,2.43-5.54,3.16-9.8,1.77-12.35-4-.87-2-1.46-4.21-2.83-5.74s-3.6-3.43-5.69-3.81c-8.17-1.51-13.52-6-14.41-14.09-.51-4.62-3-6.87-6.92-7.06-11.68-.58-17.83-8.52-23.5-17.07-1.57-2.36-2.33-5.31-3.17-8.08-2.17-7.14-4.47-9.06-11.76-9.71a85.14,85.14,0,0,1-11.64-1.48c-1.89-.43-4.4-1.85-4.92-3.4s.72-4.3,2.09-5.47a13.68,13.68,0,0,1,7-3.16A68.06,68.06,0,0,1,246.53,523c7,2.26,10.28-.35,10-7.54-.25-6.5-.15-6.3,5.49-9.28a8.19,8.19,0,0,0,3.4-4.85c1-3.88,1-8,2-11.89,1.36-5.4-.34-9.73-3.78-13.64-1.69-1.92-3.73-2.14-6.22-1.37-5.25,1.62-7,.56-10.08-3.9a17.11,17.11,0,0,0-5.9-5.07c-10.84-5.83-21.74-11.49-30.87-20-4.55-4.21-8.41-8.75-9.77-15-.77-3.53-2.48-6.18-6.31-7.38-1-.31-2.16-2.88-1.87-4.09.89-3.75-.68-5.94-3-8.67-3.08-3.59-5.11-8.08-7.57-12.19-.18-.31-.36-.87-.22-1.09,3.17-4.8,1.7-12.4,8.93-14.76,5.28-1.72,10.5-3.67,15.83-5.26,8.48-2.53,10.32-9,9.5-17.5a4.44,4.44,0,0,0-3.23-2.85c-5.76.07-8.61-3.51-11.14-7.85-2-3.42-3.44-7.37-8.85-6.8-2.38.25-3.39-3.06-2.19-6.07.81-2,2.75-3.9.38-6.15s-4.88-1.8-7.4-.59c-4.59,2.21-9.06,3-13.57-.21a3.65,3.65,0,0,0-2.51-.65c-5.61,1.16-8.64-2.61-11.82-6.06-2-2.14-3.71-4.5-5.68-6.65-1.67-1.84-2.8-1.31-3.31,1-.87,3.91-2.62,4.54-5.79,2.12a6,6,0,0,1-2.32-7.07,6.13,6.13,0,0,1,6.66-4.58c2.13.16,4.23,1.31,6.3,1.21s4.37-1.18,6.55-1.83c-.62-2-.79-4.34-2-6-4.1-5.82-9.34-9.38-17.08-8.23-3.57.53-4.41-.88-3-4.25a5.83,5.83,0,0,0-1.28-6.93c-2.94-3-2.66-6.47-.29-9.3,3.56-4.24,7.26-8.58,11.66-11.85a263.71,263.71,0,0,1,24.09-15.83c5.05-3,7.72-2,11.83,2.18,4,4,6.13,4.55,11.09,2.15,3.36-1.63,6.12-.84,8,2,2.81,4.38,6.78,6.47,11.62,7.85,3.1.89,6,2.77,8.78,4.43,4.13,2.42,8.34,4.07,13.29,3.64,3.85-.34,5.71,1.47,5.85,5.11l-6.89,1.2c-3.27.57-3.34,2.92-2.29,5.1.84,1.74,2.48,3.14,3.92,4.52,12.31,11.87,27.47,17.27,44.11,18.92,2.59.25,5.76-.95,8-2.45,6.27-4.15,16.41-3.76,21.76,1.48,3.81,3.72,7.46,7.59,11.22,11.36,3.94,4,8.29,7,14.28,6.93,1,0,2.27,1.2,3.12,2.13,1.18,1.29,1.89,3.05,3.15,4.24,2.85,2.69,6.15,1.67,7.32-2.08.11-.36.11-.76.19-1.13,1.84-7.92,3.17-8.5,10.63-5.28,1,.42,3.34-.12,3.69-.86a65.48,65.48,0,0,0,3-8.76c.33-1.06.16-2.5.82-3.18,1.64-1.72,1.75-3.3,1.09-5.51-.35-1.15.35-3,1.16-4,1.88-2.47,4.81-4.32,4-8.1-.05-.22,0-.61.17-.71,4.91-3.31,1.1-5.4-.95-8-1.23-1.54-1.62-3.76-2.89-5.26a95.35,95.35,0,0,0-9.6-10.18c-1.71-1.5-4.29-2.23-6.6-2.76a31.42,31.42,0,0,1-17.05-10.6c-1.42-1.63-4-2.24-6.05-3.33-3.66-2-7.6-3.59-9.08-8-.16-.48-.28-1.19-.62-1.35-4.41-2-3.08-5.73-3-9.19a10.28,10.28,0,0,0-1.1-4.26c-1.06-2.31-2.36-4.51-3.76-7.11M204,396.1c-1.64,0-2.39-.05-3.14,0-3.49.31-6,3.28-5.41,6.34a5.51,5.51,0,0,0,7.23,4.15,15.24,15.24,0,0,0,5.42-3.25c1-1,2.16-3,1.79-4.06-.46-1.29-2.35-2.21-3.79-3a4.13,4.13,0,0,0-2.1-.23" transform="translate(-86.59 -164.17)"/><path class="cls-5" d="M289.87,749.74c-1.16-.43-2.33-.84-3.48-1.29-5.25-2.07-10.35-5.15-15.78-6-7.11-1.07-14.35-4.45-21.79-.88a4.09,4.09,0,0,1-3.78-.51c-6-6.43-14.42-7.78-22.07-10.47-10.7-3.76-21.68-6.74-32.57-9.94-7.72-2.28-10.85-6-11.73-13.86a11.62,11.62,0,0,0-2.14-4.65c-3.51-5.39-7.11-10.73-10.75-16a64.48,64.48,0,0,0-5.26-7c-.55-.61-2.17-.48-3.25-.34-6.57.86-11.82-2.2-16.83-5.75a6.51,6.51,0,0,1-2-3.51c-3.52-13.28-10.37-24.39-21.32-32.81-6.38-4.91-8.67-11.92-10.38-19.31-1.15-4.93-2.44-9.83-3.62-14.75-1.26-5.27-3.1-6.65-8.54-8-1.63-.41-3.37-2.56-4-4.3-1.68-4.56-2.79-9.33-4-13.44,2.84-.63,6.23-1.59,9.68-2.08a23.1,23.1,0,0,1,7.14.08c4.71.84,8.74.08,12.2-3.44A60,60,0,0,1,121.9,566c2.77-2.13,6-2.33,8.24.34A158.06,158.06,0,0,1,143.76,584c1.4,2.22.45,6,.22,9.11-.13,1.72-1.47,3.4-1.41,5.07.07,2.07.46,5.21,1.76,5.88,1.69.87,4.48.06,6.63-.6,1.16-.35,2-1.9,2.92-2.9,3.23-3.34,6.73-3.07,8.92,1a24.18,24.18,0,0,1,2,6.86c.74,3.84,2.91,5.73,6.78,5.81,2,0,4.19-.2,6,.41a13.26,13.26,0,0,1,5.91,3.46c3.51,4.2,6.77,4.85,11.16,1.35,2.48-2,4.87-4,7.26-6.12a15.31,15.31,0,0,1,12.26-4c4.13.48,7.82.1,11.34-2.89s12.68,2.56,13.21,7.91a99.46,99.46,0,0,1,.46,15.9c-.14,2.29-2,4.49-3.18,6.68-.83,1.55-2.06,2.91-2.7,4.51-1.34,3.34-.37,5.19,3.11,6.39,1.55.53,3.13,1,4.73,1.41,2.83.71,4.54,2.32,6.12,5s4.34,4.42,6.91,6.11,5.74,2.7,8.46,4.31c4.35,2.57,4.88,6.06,1,9.14-6.2,4.93-5.48,11.59-1.55,16.5a68.91,68.91,0,0,1,13.95,30.84c1.39,7.3,5,13.16,9.43,18.76a58.52,58.52,0,0,1,4.12,5.92,15.11,15.11,0,0,1,1.12,3.26Z" transform="translate(-86.59 -164.17)"/></g></g><path class="cls-6" d="M622.22,231.32a2,2,0,0,1-2-1.63c-.61-3.2-.84-5-.85-5a2,2,0,1,1,4-.51s.22,1.74.81,4.81a2,2,0,0,1-1.6,2.34A2.31,2.31,0,0,1,622.22,231.32Z" transform="translate(-86.59 -164.17)"/><path class="cls-6" d="M816.15,436.72a2.08,2.08,0,0,1-.6-.09c-3.09-1-6.27-2-9.45-3.14a2,2,0,1,1,1.32-3.78c3.14,1.11,6.28,2.15,9.32,3.1a2,2,0,0,1,1.31,2.51A2,2,0,0,1,816.15,436.72Zm-18.67-6.54a2,2,0,0,1-.72-.13c-3.07-1.19-6.18-2.44-9.23-3.73a2,2,0,0,1,1.55-3.68c3,1.26,6.09,2.5,9.12,3.67a2,2,0,0,1-.72,3.87Zm-18.23-7.67a2.07,2.07,0,0,1-.83-.18c-3-1.38-6-2.82-9-4.27a2,2,0,1,1,1.77-3.59c2.91,1.44,5.89,2.86,8.88,4.22a2,2,0,0,1-.84,3.82Zm-17.73-8.75a2.1,2.1,0,0,1-.94-.23c-2.92-1.56-5.85-3.18-8.71-4.81a2,2,0,1,1,2-3.47c2.82,1.61,5.71,3.21,8.6,4.74a2,2,0,0,1-.94,3.77Zm-17.16-9.82a2,2,0,0,1-1.05-.3c-2.83-1.75-5.65-3.55-8.38-5.36a2,2,0,1,1,2.21-3.33c2.69,1.78,5.48,3.56,8.27,5.28a2,2,0,0,1-1,3.71ZM727.88,393a2,2,0,0,1-1.16-.38c-2.71-1.93-5.4-3.92-8-5.91a2,2,0,0,1,2.43-3.18c2.57,2,5.22,3.93,7.89,5.84a2,2,0,0,1-1.16,3.63ZM712.2,381a2,2,0,0,1-1.27-.46c-2.55-2.11-5.09-4.29-7.55-6.49a2,2,0,1,1,2.66-3c2.42,2.16,4.92,4.31,7.44,6.39A2,2,0,0,1,712.2,381Zm-14.74-13.17a2,2,0,0,1-1.39-.56c-1.7-1.64-3.4-3.33-5.05-5l-2-2a2,2,0,0,1,2.89-2.77l1.94,2c1.63,1.67,3.3,3.33,5,4.94a2,2,0,0,1,0,2.83A2,2,0,0,1,697.46,367.81ZM683.8,353.54a2,2,0,0,1-1.5-.68c-2.19-2.46-4.37-5-6.47-7.57a2,2,0,0,1,3.09-2.54c2.07,2.52,4.22,5,6.37,7.46a2,2,0,0,1-1.49,3.33Zm-12.55-15.27a2,2,0,0,1-1.6-.79c-2-2.62-4-5.32-5.88-8a2,2,0,0,1,3.27-2.31c1.88,2.68,3.83,5.34,5.8,7.92a2,2,0,0,1-1.59,3.21Zm-11.39-16.16a2,2,0,0,1-1.67-.91c-1.81-2.78-3.59-5.62-5.28-8.44a2,2,0,1,1,3.43-2.06c1.67,2.78,3.42,5.58,5.2,8.32a2,2,0,0,1-.59,2.77A2,2,0,0,1,659.86,322.11ZM649.7,305.16a2,2,0,0,1-1.76-1c-1.59-2.9-3.15-5.86-4.65-8.81a2,2,0,1,1,3.57-1.8c1.47,2.91,3,5.83,4.59,8.67a2,2,0,0,1-1.75,3Zm-8.92-17.64a2,2,0,0,1-1.81-1.16c-1.39-3-2.74-6.08-4-9.12a2,2,0,1,1,3.69-1.54c1.26,3,2.58,6,4,9a2,2,0,0,1-1,2.65A1.94,1.94,0,0,1,640.78,287.52Zm-7.62-18.24a2,2,0,0,1-1.87-1.3c-1.17-3.11-2.29-6.27-3.33-9.39a2,2,0,1,1,3.79-1.26c1,3.07,2.13,6.18,3.28,9.24a2,2,0,0,1-1.17,2.58A1.93,1.93,0,0,1,633.16,269.28Zm-6.26-18.76a2,2,0,0,1-1.92-1.44c-.94-3.24-1.81-6.48-2.59-9.63a2,2,0,1,1,3.89-.95c.76,3.09,1.61,6.27,2.54,9.46a2,2,0,0,1-1.36,2.48A1.81,1.81,0,0,1,626.9,250.52Z" transform="translate(-86.59 -164.17)"/><path class="cls-6" d="M830.43,440.71a2.18,2.18,0,0,1-.43,0c-.07,0-1.8-.4-4.93-1.24a2,2,0,0,1,1-3.87c3,.82,4.74,1.2,4.75,1.2a2,2,0,0,1-.43,4Z" transform="translate(-86.59 -164.17)"/><path class="cls-7" d="M826,461.65a2,2,0,0,1-.93-3.77c2.87-1.5,4.45-2.26,4.51-2.29a2,2,0,0,1,1.74,3.6s-1.6.77-4.4,2.23A1.9,1.9,0,0,1,826,461.65Z" transform="translate(-86.59 -164.17)"/><path class="cls-7" d="M619.82,782.5h-.22a2,2,0,0,1-1.77-2.21c.35-3.21.76-6.56,1.21-9.95a2,2,0,1,1,4,.53c-.44,3.36-.85,6.68-1.2,9.86A2,2,0,0,1,619.82,782.5Zm2.62-19.79a1.62,1.62,0,0,1-.31,0,2,2,0,0,1-1.67-2.28c.5-3.28,1-6.61,1.61-9.89a2,2,0,0,1,3.94.68c-.56,3.26-1.1,6.56-1.6,9.82A2,2,0,0,1,622.44,762.71ZM625.83,743l-.38,0a2,2,0,0,1-1.58-2.34c.62-3.25,1.28-6.55,2-9.82a2,2,0,0,1,3.92.82c-.69,3.25-1.35,6.53-2,9.75A2,2,0,0,1,625.83,743ZM630,723.51a1.73,1.73,0,0,1-.45,0,2,2,0,0,1-1.5-2.39c.74-3.24,1.52-6.51,2.33-9.74a2,2,0,0,1,3.88,1c-.8,3.21-1.58,6.46-2.31,9.67A2,2,0,0,1,630,723.51Zm4.82-19.36a1.86,1.86,0,0,1-.52-.07,2,2,0,0,1-1.41-2.45c.86-3.21,1.76-6.45,2.69-9.65a2,2,0,0,1,3.84,1.11c-.92,3.18-1.81,6.4-2.67,9.58A2,2,0,0,1,634.77,704.15ZM640.31,685a2,2,0,0,1-1.91-2.59c1-3.17,2-6.38,3.06-9.54a2,2,0,1,1,3.79,1.26c-1,3.14-2.06,6.32-3,9.46A2,2,0,0,1,640.31,685ZM646.58,666a1.92,1.92,0,0,1-.66-.12,2,2,0,0,1-1.22-2.55c1.11-3.13,2.26-6.3,3.44-9.41a2,2,0,0,1,3.74,1.41c-1.17,3.09-2.31,6.23-3.41,9.34A2,2,0,0,1,646.58,666Zm7-18.67a2.11,2.11,0,0,1-.74-.14,2,2,0,0,1-1.11-2.61c1.24-3.1,2.53-6.22,3.83-9.25a2,2,0,1,1,3.68,1.57c-1.29,3-2.57,6.1-3.8,9.17A2,2,0,0,1,653.62,647.37ZM661.46,629a2,2,0,0,1-.83-.18,2,2,0,0,1-1-2.64c1.38-3.05,2.81-6.11,4.24-9.08a2,2,0,1,1,3.6,1.73c-1.42,2.95-2.83,6-4.2,9A2,2,0,0,1,661.46,629Zm8.66-18a2,2,0,0,1-.91-.22,2,2,0,0,1-.87-2.69c1.52-3,3.1-6,4.68-8.87a2,2,0,0,1,3.51,1.91c-1.56,2.88-3.12,5.83-4.63,8.78A2,2,0,0,1,670.12,611.05Zm9.53-17.52a2,2,0,0,1-1.73-3c1.67-2.9,3.39-5.8,5.12-8.62a2,2,0,0,1,3.41,2.09c-1.71,2.79-3.42,5.66-5.07,8.53A2,2,0,0,1,679.65,593.53Zm10.49-17a2,2,0,0,1-1.65-3.12c1.84-2.72,3.79-5.49,5.8-8.21a2,2,0,1,1,3.22,2.37c-2,2.68-3.9,5.4-5.71,8.08A2,2,0,0,1,690.14,576.57ZM702,560.52a2,2,0,0,1-1.25-.44,2,2,0,0,1-.31-2.81c2.05-2.57,4.21-5.17,6.41-7.73a2,2,0,1,1,3,2.61c-2.17,2.52-4.29,5.08-6.32,7.62A2,2,0,0,1,702,560.52Zm13-15.12a2,2,0,0,1-1.48-3.36c2.23-2.42,4.56-4.87,6.92-7.28a2,2,0,1,1,2.85,2.8c-2.32,2.38-4.62,4.8-6.82,7.19A2,2,0,0,1,715,545.4Zm13.95-14.26a2,2,0,0,1-1.44-.61,2,2,0,0,1,.06-2.83c2.37-2.28,4.83-4.59,7.32-6.86a2,2,0,1,1,2.69,3c-2.46,2.24-4.9,4.52-7.24,6.78A2,2,0,0,1,728.91,531.14Zm14.76-13.43a2,2,0,0,1-1.31-3.52c2.5-2.15,5.08-4.32,7.67-6.45a2,2,0,1,1,2.54,3.09c-2.57,2.11-5.13,4.26-7.6,6.39A2,2,0,0,1,743.67,517.71Zm15.42-12.66a2,2,0,0,1-1.58-.77,2,2,0,0,1,.35-2.81c2.61-2,5.29-4.09,8-6.08a2,2,0,1,1,2.39,3.21c-2.65,2-5.31,4-7.9,6A2,2,0,0,1,759.09,505.05Zm16-11.93a2,2,0,0,1-1.63-.84,2,2,0,0,1,.47-2.79c2.71-1.93,5.48-3.86,8.23-5.73a2,2,0,1,1,2.25,3.31c-2.73,1.85-5.47,3.76-8.16,5.68A2,2,0,0,1,775.09,493.12Zm16.51-11.23a2,2,0,0,1-1.09-3.67c2.79-1.82,5.64-3.63,8.46-5.37a2,2,0,1,1,2.11,3.39c-2.8,1.74-5.62,3.53-8.4,5.33A1.94,1.94,0,0,1,791.6,481.89Zm17-10.51a2,2,0,0,1-1.72-1,2,2,0,0,1,.7-2.74c2.92-1.72,5.85-3.4,8.7-5a2,2,0,0,1,2,3.5c-2.82,1.57-5.72,3.24-8.61,5A2,2,0,0,1,808.56,471.38Z" transform="translate(-86.59 -164.17)"/><path class="cls-7" d="M618.51,797.26h-.1a2,2,0,0,1-1.89-2.1c0-.07.09-1.81.35-5a2,2,0,0,1,4,.32c-.26,3.17-.35,4.91-.35,4.92A2,2,0,0,1,618.51,797.26Z" transform="translate(-86.59 -164.17)"/><path class="cls-7" d="M822.56,453.84a2,2,0,0,1,0-4l5-.09h0a2,2,0,0,1,.05,4l-5,.09Z" transform="translate(-86.59 -164.17)"/><path class="cls-7" d="M802.28,454a2,2,0,0,1,0-4l10.13,0h0a2,2,0,0,1,0,4l-10.15,0Zm-10.14,0h0L782,453.92a2,2,0,0,1,0-4h0l10.14.06a2,2,0,1,1,0,4Zm-20.3-.16h0l-10.15-.16a2,2,0,1,1,.07-4l10.13.15a2,2,0,0,1,0,4Zm-20.3-.35h0l-10.15-.24a2,2,0,1,1,.1-4l10.14.24a2,2,0,0,1-.05,4ZM731.26,453h-.06l-10.15-.33a2,2,0,0,1,.14-4l10.13.33a2,2,0,0,1-.06,4Zm-20.28-.7h-.08l-10.15-.42a2,2,0,1,1,.18-4l10.13.42a2,2,0,0,1-.08,4Zm-20.27-.89h-.1l-10.14-.51a2,2,0,1,1,.21-4l10.12.51a2,2,0,0,1-.09,4Zm-20.26-1.07h-.12c-3.35-.19-6.73-.4-10.13-.61a2,2,0,0,1,.25-4l10.11.61a2,2,0,0,1-.11,4ZM650.2,449h-.14l-10.13-.72a2,2,0,0,1,.3-4l10.1.72a2,2,0,0,1-.13,4ZM630,447.54h-.16c-3.36-.26-6.74-.54-10.12-.82a2,2,0,1,1,.33-4c3.38.29,6.75.56,10.1.83a2,2,0,0,1-.15,4Zm-20.22-1.71h-.18c-3.36-.3-6.74-.61-10.11-.94a2,2,0,1,1,.38-4c3.37.32,6.74.64,10.09.94a2,2,0,0,1-.18,4Zm-20.17-1.95h-.21q-5-.51-10.09-1.07a2,2,0,1,1,.44-4q5,.56,10.06,1.07a2,2,0,0,1-.2,4Zm-20.15-2.21-.24,0c-3.36-.39-6.73-.8-10.09-1.22a2,2,0,0,1,.5-4q5,.63,10.06,1.22a2,2,0,0,1-.23,4Zm-20.15-2.52H549q-5.06-.67-10.09-1.38a2,2,0,0,1,.56-4q5,.7,10.06,1.37a2,2,0,0,1-.26,4Zm-20.11-2.83-.3,0q-5-.75-10-1.55a2,2,0,0,1,.63-3.95c3.32.53,6.66,1,10,1.55a2,2,0,0,1-.29,4Zm-20-3.2a2,2,0,0,1-.34,0q-5-.85-10-1.75a2,2,0,0,1,.71-3.94q5,.9,10,1.75a2,2,0,0,1-.33,4Zm-20-3.61a1.69,1.69,0,0,1-.38,0c-3.34-.64-6.67-1.3-10-2a2,2,0,1,1,.81-3.92c3.28.68,6.59,1.33,9.92,2a2,2,0,0,1-.38,4Zm-19.86-4.08a2.2,2.2,0,0,1-.44-.05l-.15,0q-4.92-1.08-9.75-2.18a2,2,0,1,1,.89-3.9q4.81,1.1,9.73,2.17l.14,0a2,2,0,0,1-.42,4Zm-19.77-4.5a1.82,1.82,0,0,1-.46-.06c-3.33-.78-6.62-1.58-9.87-2.37a2,2,0,1,1,1-3.89c3.25.8,6.52,1.59,9.84,2.37a2,2,0,0,1-.46,3.95Zm-19.69-4.84a2.05,2.05,0,0,1-.49-.06q-5-1.26-9.83-2.55a2,2,0,0,1,1-3.87c3.23.86,6.49,1.7,9.79,2.55a2,2,0,0,1-.49,3.93Zm-19.6-5.18a2,2,0,0,1-.53-.07q-5-1.36-9.77-2.74a2,2,0,1,1,1.09-3.84q4.81,1.37,9.74,2.72a2,2,0,0,1-.53,3.93Zm-19.49-5.56a1.87,1.87,0,0,1-.57-.08q-4.92-1.45-9.72-2.93a2,2,0,1,1,1.17-3.82q4.78,1.46,9.69,2.92a2,2,0,0,1-.57,3.91Zm-19.38-6a1.9,1.9,0,0,1-.61-.1q-4.89-1.56-9.66-3.14a2,2,0,1,1,1.26-3.79c3.16,1,6.37,2.09,9.62,3.12a2,2,0,0,1-.61,3.91ZM352.14,393a1.89,1.89,0,0,1-.65-.11q-4.86-1.68-9.59-3.37a2,2,0,0,1,1.35-3.76q4.69,1.68,9.54,3.35a2,2,0,0,1-.65,3.89Zm-19.08-6.83a1.93,1.93,0,0,1-.7-.13c-3.18-1.18-6.38-2.4-9.5-3.61a2,2,0,0,1,1.45-3.73c3.1,1.21,6.28,2.41,9.45,3.59a2,2,0,0,1-.7,3.88Zm-18.9-7.33a2,2,0,0,1-.75-.14c-3.16-1.27-6.32-2.58-9.4-3.87a2,2,0,1,1,1.55-3.69c3.06,1.29,6.2,2.58,9.35,3.85a2,2,0,0,1-.75,3.85ZM295.47,371a2.05,2.05,0,0,1-.8-.17c-3.11-1.36-6.23-2.76-9.28-4.15a2,2,0,0,1,1.66-3.64c3,1.38,6.13,2.77,9.22,4.12a2,2,0,0,1-.8,3.84ZM277,362.6a2,2,0,0,1-.86-.2c-3.05-1.45-6.12-2.95-9.14-4.45a2,2,0,0,1,1.78-3.58c3,1.49,6.05,3,9.08,4.42a2,2,0,0,1-.86,3.81Zm-18.14-9a1.9,1.9,0,0,1-.92-.23c-3-1.58-6.06-3.19-9-4.78a2,2,0,1,1,1.92-3.52c2.89,1.59,5.89,3.19,8.9,4.75a2,2,0,0,1,.85,2.7A2,2,0,0,1,258.89,353.56Zm-17.79-9.71a2,2,0,0,1-1-.27c-3-1.69-5.91-3.42-8.78-5.15a2,2,0,0,1,2.06-3.43c2.85,1.72,5.78,3.43,8.71,5.11a2,2,0,0,1-1,3.74Zm-17.36-10.46a2,2,0,0,1-1.07-.31c-2.9-1.83-5.77-3.7-8.53-5.56a2,2,0,1,1,2.22-3.32c2.74,1.83,5.58,3.68,8.45,5.5a2,2,0,0,1-1.07,3.69ZM206.9,322.12a2,2,0,0,1-1.15-.37c-2.79-2-5.56-4-8.24-6a2,2,0,0,1,2.41-3.2c2.64,2,5.38,4,8.14,5.94a2,2,0,0,1-1.16,3.64Zm-16.19-12.19a2,2,0,0,1-1.25-.45c-2.68-2.15-5.32-4.34-7.84-6.51a2,2,0,1,1,2.6-3c2.49,2.15,5.1,4.31,7.75,6.44a2,2,0,0,1-1.26,3.56Zm-15.34-13.24a2,2,0,0,1-1.37-.53c-2.55-2.37-5-4.77-7.33-7.12a2,2,0,0,1,2.85-2.81c2.27,2.31,4.7,4.67,7.21,7a2,2,0,0,1-1.36,3.46Zm-14.21-14.44a2,2,0,0,1-1.5-.67c-2.35-2.65-4.57-5.29-6.59-7.86a2,2,0,1,1,3.15-2.47c2,2.5,4.13,5.08,6.43,7.67a2,2,0,0,1-1.49,3.33Z" transform="translate(-86.59 -164.17)"/><path class="cls-7" d="M148.76,266.31a2,2,0,0,1-1.68-.91,47.45,47.45,0,0,1-2.67-4.49,2,2,0,0,1,3.58-1.78,46.42,46.42,0,0,0,2.44,4.09,2,2,0,0,1-.59,2.77A1.94,1.94,0,0,1,148.76,266.31Z" transform="translate(-86.59 -164.17)"/><path class="cls-7" d="M328.57,191a2,2,0,0,1-1.73-1c-1.68-2.86-2.46-4.42-2.49-4.49a2,2,0,1,1,3.58-1.78s.76,1.52,2.36,4.25a2,2,0,0,1-.71,2.74A2.07,2.07,0,0,1,328.57,191Z" transform="translate(-86.59 -164.17)"/><path class="cls-7" d="M811.6,445.27l-.3,0c-2.93-.44-6.25-.95-9.94-1.54a2,2,0,1,1,.63-3.95c3.67.59,7,1.1,9.9,1.53a2,2,0,0,1-.29,4Zm-19.83-3.17-.34,0c-3.12-.53-6.43-1.11-9.9-1.73a2,2,0,1,1,.7-3.93c3.46.61,6.76,1.19,9.87,1.72a2,2,0,0,1-.33,4ZM772,438.57a2.33,2.33,0,0,1-.37,0q-4.78-.9-9.87-1.89a2,2,0,0,1,.77-3.93c3.38.67,6.66,1.29,9.84,1.89a2,2,0,0,1-.37,4Zm-19.7-3.87a1.87,1.87,0,0,1-.4,0c-3.21-.66-6.49-1.34-9.84-2.06a2,2,0,1,1,.84-3.91c3.34.71,6.61,1.4,9.8,2.05a2,2,0,0,1-.4,4Zm-19.62-4.19a1.65,1.65,0,0,1-.44-.05q-4.82-1.06-9.8-2.22a2,2,0,1,1,.9-3.89q5,1.14,9.77,2.21a2,2,0,0,1-.43,3.95ZM713.14,426a1.88,1.88,0,0,1-.47-.05q-4.83-1.15-9.76-2.39a2,2,0,1,1,1-3.88c3.27.82,6.52,1.61,9.72,2.38a2,2,0,0,1-.46,3.94Zm-19.47-4.85a1.73,1.73,0,0,1-.5-.07c-3.21-.83-6.46-1.68-9.72-2.56a2,2,0,0,1,1-3.86q4.88,1.31,9.68,2.55a2,2,0,0,1-.5,3.94Zm-19.38-5.21a2,2,0,0,1-.53-.08q-4.82-1.34-9.67-2.74a2,2,0,0,1,1.11-3.85q4.84,1.41,9.63,2.74a2,2,0,0,1-.54,3.93ZM655,410.35a2,2,0,0,1-.58-.09q-4.79-1.44-9.61-2.94A2,2,0,1,1,646,403.5q4.8,1.5,9.57,2.93a2,2,0,0,1-.57,3.92Zm-19.16-6a2,2,0,0,1-.62-.1q-4.75-1.54-9.54-3.15a2,2,0,1,1,1.28-3.8q4.75,1.6,9.5,3.15a2,2,0,0,1-.62,3.9Zm-19-6.41a1.91,1.91,0,0,1-.66-.11q-4.74-1.67-9.47-3.38a2,2,0,0,1,1.37-3.76c3.14,1.14,6.28,2.27,9.42,3.36a2,2,0,0,1-.66,3.89ZM598,391.09a2,2,0,0,1-.71-.13c-3.17-1.21-6.33-2.43-9.39-3.64a2,2,0,1,1,1.47-3.72c3,1.2,6.18,2.42,9.34,3.62a2,2,0,0,1-.71,3.87Zm-18.68-7.38a2.06,2.06,0,0,1-.76-.15c-3.11-1.28-6.23-2.6-9.27-3.9a2,2,0,1,1,1.58-3.68c3,1.3,6.12,2.61,9.22,3.88a2,2,0,0,1-.77,3.85Zm-18.42-7.92a1.93,1.93,0,0,1-.81-.17c-3.08-1.39-6.15-2.8-9.13-4.2a2,2,0,1,1,1.69-3.62c3,1.39,6,2.79,9.07,4.17a2,2,0,0,1-.82,3.82Zm-18.12-8.51a2,2,0,0,1-.88-.21c-3-1.46-5.95-3-8.86-4.46l-.12-.06a2,2,0,0,1,1.82-3.57l.15.08c2.87,1.48,5.83,3,8.78,4.42a2,2,0,0,1-.89,3.8Zm-17.83-9.17a2,2,0,0,1-.94-.23q-4.49-2.38-8.84-4.78a2,2,0,0,1,1.92-3.51q4.35,2.39,8.8,4.76a2,2,0,0,1-.94,3.76Zm-17.58-9.64a2,2,0,0,1-1-.26c-2.9-1.64-5.84-3.33-8.71-5a2,2,0,1,1,2-3.45c2.86,1.67,5.78,3.34,8.67,5a2,2,0,0,1-1,3.74Zm-17.31-10.11a2,2,0,0,1-1-.28c-2.87-1.73-5.76-3.5-8.57-5.25a2,2,0,1,1,2.11-3.4c2.8,1.74,5.67,3.5,8.52,5.22a2,2,0,0,1,.68,2.74A2,2,0,0,1,490.05,338.36Zm-17-10.58a2,2,0,0,1-1.08-.32c-2.81-1.8-5.64-3.65-8.42-5.49a2,2,0,1,1,2.21-3.34c2.76,1.83,5.58,3.67,8.37,5.46a2,2,0,0,1-1.08,3.69ZM456.32,316.7a2.06,2.06,0,0,1-1.13-.35c-2.78-1.91-5.55-3.84-8.25-5.75a2,2,0,1,1,2.31-3.27c2.68,1.9,5.44,3.82,8.2,5.72a2,2,0,0,1-1.13,3.65ZM440,305.1a2,2,0,0,1-1.18-.38c-2.7-2-5.42-4-8.06-6a2,2,0,0,1,2.42-3.18c2.63,2,5.32,4,8,6A2,2,0,0,1,440,305.1ZM424,293a2,2,0,0,1-1.24-.43c-2.63-2.07-5.27-4.18-7.85-6.29a2,2,0,1,1,2.53-3.1c2.56,2.09,5.18,4.19,7.79,6.25A2,2,0,0,1,424,293Zm-15.54-12.67a2,2,0,0,1-1.29-.48c-2.56-2.17-5.13-4.38-7.62-6.57a2,2,0,1,1,2.65-3c2.47,2.17,5,4.37,7.56,6.52a2,2,0,0,1-1.3,3.53Zm-15-13.25a2,2,0,0,1-1.35-.52c-2.48-2.28-5-4.59-7.35-6.87a2,2,0,1,1,2.76-2.9c2.37,2.27,4.83,4.56,7.29,6.82a2,2,0,0,1-1.35,3.47Zm-14.5-13.83a2,2,0,0,1-1.41-.59c-2.4-2.38-4.77-4.8-7.06-7.18a2,2,0,1,1,2.88-2.77c2.27,2.36,4.62,4.75,7,7.12a2,2,0,0,1-1.41,3.42ZM365,238.76a2,2,0,0,1-1.47-.65c-2.3-2.5-4.55-5-6.71-7.51a2,2,0,1,1,3-2.63c2.13,2.46,4.37,5,6.64,7.44a2,2,0,0,1-1.48,3.35Zm-13.15-15.13a2,2,0,0,1-1.54-.73c-2.17-2.63-4.29-5.28-6.3-7.88a2,2,0,0,1,3.16-2.45c2,2.57,4.08,5.19,6.22,7.79a2,2,0,0,1-1.54,3.27ZM339.6,207.77a2,2,0,0,1-1.62-.83c-2-2.82-4-5.62-5.76-8.3a2,2,0,1,1,3.34-2.21c1.75,2.64,3.66,5.39,5.66,8.17a2,2,0,0,1-.45,2.79A2,2,0,0,1,339.6,207.77Z" transform="translate(-86.59 -164.17)"/><path class="cls-7" d="M826.28,447.31l-.24,0s-1.73-.2-5-.65a2,2,0,1,1,.54-4c3.2.44,4.91.64,4.92.64a2,2,0,0,1-.24,4Z" transform="translate(-86.59 -164.17)"/><path class="cls-6" d="M856.27,447.05a15.61,15.61,0,1,1-15.61-15.6,15.6,15.6,0,0,1,15.61,15.6" transform="translate(-86.59 -164.17)"/><path class="cls-6" d="M665.63,304.62a10.38,10.38,0,1,1-10.38-10.38,10.37,10.37,0,0,1,10.38,10.38" transform="translate(-86.59 -164.17)"/><path class="cls-6" d="M679.57,248a20.12,20.12,0,0,0-1.84-6.93,25.5,25.5,0,0,0-4-5.86,24.71,24.71,0,0,0-23.07-8.18,23.35,23.35,0,0,0-9.08,3.64,23,23,0,0,0-10.63,18.81,32.53,32.53,0,0,0,.21,6A30.62,30.62,0,0,0,633,262.6a57.23,57.23,0,0,0,5.83,10.74c2.5,3.75,5.27,7.31,8,10.93a93.29,93.29,0,0,0,8.5,10,.61.61,0,0,1,.07-.1c2.29-2.76,4.67-5.43,6.82-8.3,3.46-4.59,6.88-9.21,9.87-14.13a60.79,60.79,0,0,0,5.78-12A28.69,28.69,0,0,0,679.57,248" transform="translate(-86.59 -164.17)"/></g></g></g></g></g></svg>